<svg width="93" height="17" viewBox="0 0 93 17" fill="none" xmlns="http://www.w3.org/2000/svg">
<path d="M20.9619 4.24788C20.9619 4.20221 20.9619 4.11087 21.0076 4.0652C21.0533 4.01953 21.0989 4.01953 21.1903 4.01953H24.0217C24.6154 4.01953 25.1635 4.11087 25.7115 4.33921C26.2595 4.56756 26.7162 4.88724 27.0816 5.25259C27.4926 5.66362 27.7666 6.12031 27.9949 6.62266C28.2233 7.12502 28.3146 7.71872 28.3146 8.31242C28.3146 8.90611 28.2233 9.45414 27.9949 10.0022C27.7666 10.5502 27.4469 11.0069 27.0816 11.3722C26.6705 11.7833 26.2138 12.0573 25.7115 12.2856C25.1635 12.514 24.6154 12.6053 24.0217 12.6053H21.1903C21.1446 12.6053 21.0533 12.6053 21.0076 12.5596C20.9619 12.514 20.9619 12.4683 20.9619 12.377V4.24788ZM23.8391 11.4636C24.2958 11.4636 24.7068 11.3722 25.0721 11.2352C25.4375 11.0982 25.8028 10.8699 26.0768 10.5959C26.3509 10.3219 26.5792 9.9565 26.7162 9.59115C26.8532 9.2258 26.9446 8.76911 26.9446 8.31242C26.9446 7.85573 26.8532 7.44471 26.7162 7.07935C26.5792 6.714 26.3509 6.34865 26.0768 6.07464C25.8028 5.80062 25.4831 5.57228 25.0721 5.43527C24.7068 5.29826 24.2501 5.20692 23.8391 5.20692H22.195V11.5092H23.8391V11.4636Z" fill="white"/>
<path d="M30.2329 5.70848C30.0502 5.70848 29.8675 5.61714 29.7305 5.48013C29.5935 5.34313 29.5479 5.16045 29.5479 4.97777C29.5479 4.74943 29.5935 4.61242 29.7305 4.47542C29.8675 4.33841 30.0502 4.24707 30.2329 4.24707C30.4612 4.24707 30.5982 4.33841 30.7352 4.47542C30.8723 4.61242 30.9636 4.7951 30.9636 4.97777C30.9636 5.16045 30.8723 5.34313 30.7352 5.48013C30.6439 5.61714 30.4612 5.70848 30.2329 5.70848ZM29.6849 7.94626C29.6849 7.90059 29.6849 7.80925 29.7305 7.76358C29.7762 7.71791 29.8219 7.71791 29.9132 7.71791H30.5982C30.6439 7.71791 30.7352 7.71791 30.7809 7.76358C30.8266 7.80925 30.8266 7.85492 30.8266 7.94626V12.4218C30.8266 12.4675 30.7809 12.5588 30.7809 12.6045C30.7352 12.6502 30.6896 12.6502 30.5982 12.6502H29.9132C29.8675 12.6502 29.7762 12.6502 29.7305 12.6045C29.6849 12.5132 29.6849 12.4675 29.6849 12.4218V7.94626Z" fill="white"/>
<path d="M32.105 12.3304C32.105 12.1021 32.1506 11.8737 32.242 11.691C32.3333 11.5084 32.4247 11.3714 32.5617 11.2343C32.6987 11.0973 32.8357 10.9603 33.0184 10.869C32.927 10.7777 32.8814 10.6863 32.8357 10.5493C32.79 10.458 32.7443 10.321 32.6987 10.184C32.653 10.047 32.653 9.86428 32.653 9.6816C32.653 9.40759 32.6987 9.13357 32.79 8.85956C32.8814 8.58554 33.0184 8.3572 33.201 8.17452C33.3837 7.99185 33.6121 7.80917 33.8861 7.71783C34.1601 7.58083 34.4341 7.53516 34.7538 7.53516H36.9002C37.0372 7.53516 37.1286 7.62649 37.1286 7.7635V8.08318C37.1286 8.12885 37.1286 8.17452 37.0829 8.22019C37.0372 8.26586 37.0372 8.31153 36.9916 8.31153L36.3065 8.49421C36.3979 8.58554 36.4892 8.67688 36.5805 8.81389C36.6262 8.90523 36.7175 9.04223 36.7632 9.22491C36.8089 9.40759 36.8546 9.59026 36.8546 9.81861C36.8546 10.0926 36.8089 10.321 36.7175 10.595C36.6262 10.8233 36.4892 11.0517 36.3065 11.2343C36.1239 11.417 35.8955 11.554 35.6672 11.691C35.3475 11.7824 35.0278 11.8737 34.7081 11.8737C34.3884 11.8737 34.1601 11.828 33.9774 11.7824C33.7947 11.7367 33.7034 11.691 33.6577 11.691C33.6121 11.691 33.6121 11.691 33.5207 11.7367C33.475 11.7824 33.4294 11.7824 33.338 11.8737C33.2924 11.9194 33.2467 12.0107 33.201 12.0564C33.1554 12.1477 33.1554 12.2391 33.1554 12.3304C33.1554 12.4674 33.201 12.6044 33.2924 12.6958C33.3837 12.7871 33.5207 12.8328 33.7491 12.8328H35.4388C35.7128 12.8328 35.9412 12.8784 36.2152 12.9241C36.4435 13.0154 36.6719 13.1068 36.8089 13.2438C36.9916 13.3808 37.1286 13.5635 37.2199 13.7461C37.3112 13.9745 37.3569 14.2028 37.3569 14.4768C37.3569 14.7509 37.3112 15.0249 37.1742 15.2532C37.0372 15.4816 36.9002 15.7099 36.6719 15.8926C36.4435 16.0753 36.1695 16.2123 35.8498 16.3493C35.5302 16.4406 35.1648 16.5319 34.7538 16.5319C34.2971 16.5319 33.9317 16.4863 33.6577 16.3949C33.338 16.3036 33.1097 16.1666 32.8814 15.9839C32.6987 15.8012 32.5617 15.6642 32.4703 15.4359C32.379 15.2532 32.3333 15.0249 32.3333 14.8422C32.3333 14.6595 32.379 14.5225 32.4247 14.3398C32.4703 14.2028 32.5617 14.0658 32.653 13.9745C32.7443 13.8831 32.8357 13.7918 32.8814 13.7461C32.9727 13.7005 33.0184 13.6548 33.064 13.6548V13.6091C33.0184 13.6091 32.927 13.5635 32.79 13.5178C32.6987 13.4721 32.6073 13.3808 32.4703 13.2895C32.379 13.1981 32.2877 13.0611 32.1963 12.9241C32.105 12.7414 32.105 12.5587 32.105 12.3304ZM33.4294 14.5682C33.4294 14.8422 33.5664 15.0249 33.7947 15.2075C34.0231 15.3902 34.3428 15.4359 34.7081 15.4359C34.8908 15.4359 35.0735 15.3902 35.2561 15.3902C35.4388 15.3446 35.5758 15.2989 35.7128 15.2075C35.8498 15.1162 35.9412 15.0249 36.0325 14.8879C36.1239 14.7509 36.1239 14.6139 36.1239 14.4768C36.1239 14.4312 36.1239 14.3855 36.0782 14.2942C36.0782 14.2028 36.0325 14.1572 35.9412 14.0658C35.8955 13.9745 35.7585 13.9288 35.6672 13.8831C35.5302 13.8375 35.3931 13.7918 35.1648 13.7918C34.9821 13.7918 34.7995 13.7918 34.6168 13.7918C34.4341 13.7918 34.2514 13.7918 34.0687 13.8375C34.0687 13.8375 34.0231 13.8831 33.9317 13.8831C33.8404 13.9288 33.7947 13.9745 33.7034 14.0202C33.6121 14.0658 33.5664 14.1572 33.4751 14.2485C33.4294 14.3398 33.4294 14.4312 33.4294 14.5682ZM34.7081 10.9147C35.0278 10.9147 35.2561 10.8233 35.4388 10.595C35.6215 10.3666 35.7128 10.0926 35.7128 9.77294C35.7128 9.45325 35.6215 9.17924 35.4388 8.9509C35.2561 8.72255 34.9821 8.63121 34.7081 8.63121C34.3884 8.63121 34.1144 8.72255 33.9317 8.9509C33.7034 9.17924 33.6121 9.45325 33.6121 9.77294C33.6121 10.0926 33.7034 10.3666 33.9317 10.595C34.1601 10.7777 34.4341 10.9147 34.7081 10.9147Z" fill="white"/>
<path d="M38.3618 7.94641C38.3618 7.90074 38.3618 7.8094 38.4075 7.76373C38.4532 7.71806 38.4988 7.71806 38.5902 7.71806H38.9555C39.0469 7.71806 39.1382 7.76373 39.1382 7.85507L39.2752 8.26609C39.3209 8.22042 39.3665 8.17475 39.4579 8.12908C39.5492 8.03774 39.6862 7.99208 39.8232 7.90074C39.9602 7.8094 40.1429 7.76373 40.3256 7.67239C40.5083 7.62672 40.7366 7.58105 41.0106 7.58105C41.376 7.58105 41.6957 7.62672 41.9697 7.76373C42.2437 7.90074 42.4264 8.03774 42.609 8.26609C42.7917 8.49443 42.883 8.72278 42.9744 8.99679C43.0657 9.27081 43.0657 9.59049 43.0657 9.91017V12.3763C43.0657 12.422 43.0201 12.5133 43.0201 12.559C42.9744 12.6046 42.9287 12.6046 42.8374 12.6046H42.1523C42.1067 12.6046 42.0153 12.6046 41.9697 12.559C41.924 12.5133 41.924 12.4676 41.924 12.3763V9.8645C41.924 9.45348 41.8327 9.17947 41.65 8.95112C41.4673 8.72278 41.239 8.63144 40.9193 8.63144C40.7366 8.63144 40.5539 8.67711 40.3713 8.72278C40.1886 8.76845 40.0516 8.85979 39.9602 8.95112C39.8232 9.04246 39.7319 9.1338 39.6862 9.17947C39.5949 9.27081 39.5949 9.31648 39.5492 9.36215V12.3763C39.5492 12.5133 39.4579 12.6046 39.2752 12.6046H38.6358C38.5902 12.6046 38.4988 12.6046 38.4532 12.559C38.4075 12.5133 38.4075 12.4676 38.4075 12.3763V7.94641H38.3618Z" fill="white"/>
<path d="M45.3491 5.70848C45.1664 5.70848 44.9837 5.61714 44.8467 5.48013C44.7097 5.34313 44.6641 5.16045 44.6641 4.97777C44.6641 4.74943 44.7097 4.61242 44.8467 4.47542C44.9837 4.33841 45.1664 4.24707 45.3491 4.24707C45.5774 4.24707 45.7144 4.33841 45.8515 4.47542C45.9885 4.61242 46.0798 4.7951 46.0798 4.97777C46.0798 5.16045 45.9885 5.34313 45.8515 5.48013C45.7144 5.61714 45.5318 5.70848 45.3491 5.70848ZM44.7554 7.94626C44.7554 7.90059 44.7554 7.80925 44.8011 7.76358C44.8467 7.71791 44.8924 7.71791 44.9837 7.71791H45.6688C45.7144 7.71791 45.8058 7.71791 45.8515 7.76358C45.8971 7.80925 45.8971 7.85492 45.8971 7.94626V12.4218C45.8971 12.4675 45.8515 12.5588 45.8515 12.6045C45.8058 12.6502 45.7601 12.6502 45.6688 12.6502H44.9837C44.9381 12.6502 44.8467 12.6502 44.8011 12.6045C44.7554 12.5588 44.7554 12.5132 44.7554 12.4218V7.94626Z" fill="white"/>
<path d="M47.9978 8.72276H47.4954C47.4498 8.72276 47.3584 8.72276 47.3128 8.67709C47.2671 8.63142 47.2671 8.58576 47.2671 8.49442V7.94639C47.2671 7.80938 47.3584 7.71804 47.4954 7.71804H47.9978V6.34797C47.9978 6.3023 47.9978 6.21097 48.0435 6.1653C48.0891 6.11963 48.1348 6.11963 48.2261 6.11963H48.9112C48.9568 6.11963 49.0482 6.1653 49.0939 6.1653C49.1395 6.21097 49.1395 6.25664 49.1395 6.34797V7.71804H50.4183C50.5553 7.71804 50.6466 7.80938 50.6466 7.94639V8.49442C50.6466 8.54009 50.6009 8.63142 50.6009 8.67709C50.5553 8.72276 50.5096 8.72276 50.4183 8.72276H49.1395V11.1889C49.1395 11.4172 49.1852 11.5542 49.2309 11.5999C49.3222 11.6456 49.4135 11.6912 49.5049 11.6912C49.6419 11.6912 49.7789 11.6456 49.9159 11.5999C50.0529 11.5542 50.1899 11.5086 50.2356 11.4629C50.3269 11.4172 50.3726 11.4172 50.4183 11.4629C50.4639 11.5086 50.5096 11.5542 50.5096 11.5999L50.7379 12.1479C50.7836 12.2849 50.7379 12.3763 50.6466 12.422C50.6009 12.422 50.5553 12.4676 50.4639 12.5133C50.3726 12.559 50.2356 12.6046 50.0986 12.6503C49.9616 12.696 49.8246 12.7416 49.6419 12.7416C49.5049 12.7873 49.3222 12.7873 49.1852 12.7873C48.9568 12.7873 48.7285 12.7416 48.5915 12.696C48.4088 12.6046 48.3175 12.5133 48.2261 12.3763C48.1348 12.2393 48.0435 12.1023 48.0435 11.9196C47.9978 11.7369 47.9978 11.5542 47.9978 11.3259V8.72276V8.72276Z" fill="white"/>
<path d="M51.3775 8.03746C51.3318 7.94612 51.3318 7.90045 51.3775 7.80911C51.4232 7.76344 51.4689 7.71777 51.5602 7.71777H52.3822C52.4736 7.71777 52.5649 7.76344 52.6106 7.85478L54.1633 11.1429L55.6247 7.85478C55.6704 7.76344 55.7617 7.71777 55.8987 7.71777H56.5838C56.6751 7.71777 56.7665 7.76344 56.8121 7.80911C56.8578 7.85478 56.8578 7.94612 56.8121 8.03746L53.0216 16.2122C53.0216 16.2579 52.9759 16.3035 52.9303 16.3035C52.8846 16.3492 52.8389 16.3492 52.7933 16.3492H52.0625C51.9712 16.3492 51.9255 16.3035 51.8799 16.2579C51.8342 16.2122 51.8342 16.1209 51.8799 16.0295L53.524 12.4673L51.3775 8.03746Z" fill="white"/>
<path d="M62.0639 8.8594H60.1458C60.1002 8.8594 60.0088 8.8594 59.9632 8.81373C59.9175 8.76806 59.9175 8.72239 59.9175 8.63105V8.12869C59.9175 8.08302 59.9175 7.99169 59.9632 7.94602C60.0088 7.90035 60.0545 7.90035 60.1458 7.90035H62.0639V5.98225C62.0639 5.93658 62.0639 5.84524 62.1096 5.79957C62.1553 5.75391 62.2009 5.75391 62.2923 5.75391H62.7946C62.8403 5.75391 62.9316 5.75391 62.9773 5.79957C63.023 5.84524 63.023 5.89091 63.023 5.98225V7.90035H64.9411C64.9867 7.90035 65.0781 7.90035 65.1238 7.94602C65.1694 7.99169 65.1694 8.03736 65.1694 8.12869V8.63105C65.1694 8.67672 65.1694 8.76806 65.1238 8.81373C65.0781 8.8594 65.0324 8.8594 64.9411 8.8594H63.023V10.7318C63.023 10.7775 63.023 10.8688 62.9773 10.9145C62.9316 10.9602 62.886 10.9602 62.7946 10.9602H62.2923C62.2466 10.9602 62.1553 10.9602 62.1096 10.9145C62.0639 10.8688 62.0639 10.8232 62.0639 10.7318V8.8594Z" fill="white"/>
<path d="M69.3254 4.2469C69.3254 4.20123 69.3254 4.10989 69.3711 4.06422C69.4168 4.01855 69.4624 4.01855 69.5538 4.01855H72.3853C72.979 4.01855 73.527 4.10989 74.075 4.33824C74.623 4.56658 75.0797 4.88627 75.4451 5.25162C75.8561 5.66264 76.1301 6.11933 76.3585 6.62169C76.5868 7.12405 76.6781 7.71774 76.6781 8.31144C76.6781 8.90514 76.5868 9.45317 76.3585 10.0012C76.1301 10.5492 75.8104 11.0059 75.4451 11.3713C75.0341 11.7823 74.5774 12.0563 74.075 12.2846C73.527 12.513 72.979 12.6043 72.3853 12.6043H69.5538C69.5081 12.6043 69.4168 12.6043 69.3711 12.5587C69.3254 12.513 69.3254 12.4673 69.3254 12.376V4.2469ZM72.2026 11.4626C72.6593 11.4626 73.0703 11.3713 73.4356 11.2343C73.801 11.0972 74.1664 10.8689 74.4404 10.5949C74.7144 10.3209 74.9427 9.95552 75.0797 9.59017C75.2167 9.22482 75.3081 8.76813 75.3081 8.31144C75.3081 7.85475 75.2167 7.44373 75.0797 7.07838C74.9427 6.71303 74.7144 6.34767 74.4404 6.07366C74.1664 5.79965 73.8467 5.5713 73.4356 5.43429C73.0246 5.29729 72.6136 5.20595 72.2026 5.20595H70.5585V11.5083H72.2026V11.4626Z" fill="white"/>
<path d="M77.6829 10.1842C77.6829 9.81884 77.7285 9.49915 77.8655 9.17947C78.0025 8.85979 78.1396 8.58577 78.3679 8.35743C78.5962 8.12908 78.8246 7.94641 79.1443 7.8094C79.464 7.67239 79.7836 7.58105 80.149 7.58105C80.4687 7.58105 80.7884 7.62672 81.0624 7.76373C81.3364 7.90074 81.5647 8.03774 81.7931 8.22042C82.0214 8.4031 82.1584 8.67711 82.2954 8.95112C82.4324 9.22514 82.4781 9.54482 82.4781 9.86451C82.4781 9.91017 82.4781 9.95584 82.4781 10.0472C82.4781 10.1385 82.4781 10.1842 82.4781 10.2299C82.4781 10.3669 82.3868 10.4582 82.2498 10.4582H78.8703C78.8703 10.6409 78.9159 10.7779 79.0073 10.9606C79.0986 11.1432 79.1899 11.2802 79.2813 11.3716C79.4183 11.5086 79.5553 11.5999 79.738 11.6456C79.9206 11.7369 80.1033 11.7369 80.286 11.7369C80.5143 11.7369 80.697 11.6913 80.9254 11.5999C81.108 11.5086 81.2907 11.4629 81.382 11.3716C81.4734 11.3259 81.5191 11.2802 81.5647 11.2802C81.6104 11.2802 81.6561 11.2802 81.7017 11.3716L82.0671 11.8283C82.1128 11.8739 82.1127 11.9196 82.1584 11.9653C82.1584 12.0109 82.1128 12.0566 82.0671 12.148C81.8844 12.285 81.6561 12.4676 81.3364 12.559C81.0167 12.696 80.6513 12.7417 80.2403 12.7417C79.875 12.7417 79.5096 12.696 79.2356 12.559C78.9159 12.422 78.6876 12.2393 78.4592 12.0109C78.2309 11.7826 78.0939 11.5086 77.9569 11.1889C77.7742 10.8692 77.6829 10.5495 77.6829 10.1842ZM81.2907 9.63616C81.2907 9.49915 81.245 9.36215 81.1994 9.22514C81.1537 9.08813 81.0624 8.99679 80.971 8.85979C80.8797 8.76845 80.7427 8.67711 80.6057 8.63144C80.4687 8.58577 80.3317 8.5401 80.1947 8.5401C79.875 8.5401 79.5553 8.63144 79.3269 8.85979C79.0986 9.08813 78.9616 9.31648 78.9159 9.63616H81.2907Z" fill="white"/>
<path d="M83.7566 4.2469C83.7566 4.20123 83.7566 4.10989 83.8023 4.06422C83.8479 4.01855 83.8936 4.01855 83.9849 4.01855H84.7156C84.7613 4.01855 84.8526 4.06422 84.8983 4.06422C84.944 4.10989 84.944 4.15556 84.944 4.2469V7.85475C84.9897 7.85475 85.1267 7.80908 85.355 7.71774C85.5834 7.62641 85.8117 7.58074 86.1314 7.58074C86.4967 7.58074 86.8164 7.62641 87.0904 7.76341C87.3644 7.90042 87.6385 8.0831 87.8668 8.31144C88.0951 8.53979 88.2778 8.8138 88.3692 9.13348C88.5062 9.45317 88.5518 9.77285 88.5518 10.1382C88.5518 10.5036 88.5062 10.8232 88.3692 11.1429C88.2322 11.4626 88.0951 11.7366 87.8668 11.965C87.6385 12.1933 87.4101 12.376 87.1361 12.513C86.8621 12.65 86.5424 12.6957 86.2227 12.6957C85.9944 12.6957 85.766 12.65 85.5834 12.6043C85.4007 12.513 85.218 12.4673 85.081 12.376C84.944 12.2846 84.807 12.1476 84.67 12.0106L84.5786 12.376C84.533 12.513 84.4416 12.6043 84.3503 12.6043H83.9849C83.9393 12.6043 83.8479 12.6043 83.8023 12.5587C83.7566 12.513 83.7566 12.4673 83.7566 12.376V4.2469V4.2469ZM84.8983 10.9602C84.8983 11.0059 84.944 11.0516 84.9897 11.1429C85.0353 11.2343 85.1267 11.3256 85.218 11.3713C85.3093 11.4626 85.4463 11.5083 85.5834 11.5996C85.7204 11.6453 85.903 11.6909 86.0857 11.6909C86.2684 11.6909 86.4511 11.6453 86.6337 11.5539C86.8164 11.4626 86.9534 11.3713 87.0448 11.2343C87.1818 11.0973 87.2274 10.9146 87.3188 10.7319C87.3644 10.5492 87.4101 10.3665 87.4101 10.1382C87.4101 9.90986 87.3644 9.72718 87.3188 9.5445C87.2274 9.36183 87.1361 9.17915 87.0448 9.04214C86.9078 8.90514 86.7708 8.8138 86.5881 8.72246C86.4054 8.63112 86.2227 8.58545 86.04 8.58545C85.8574 8.58545 85.7204 8.58545 85.5834 8.63112C85.4463 8.67679 85.355 8.67679 85.2637 8.72246C85.1723 8.76813 85.0353 8.8138 84.9897 8.85947V10.9602H84.8983Z" fill="white"/>
<path d="M90.2417 8.72276H89.7393C89.6937 8.72276 89.6023 8.72276 89.5567 8.67709C89.511 8.63142 89.511 8.58576 89.511 8.49442V7.94639C89.511 7.80938 89.6023 7.71804 89.7393 7.71804H90.2417V6.34797C90.2417 6.3023 90.2417 6.21097 90.2874 6.1653C90.333 6.11963 90.3787 6.11963 90.47 6.11963H91.1551C91.2007 6.11963 91.2921 6.1653 91.3377 6.1653C91.3834 6.21097 91.3834 6.25664 91.3834 6.34797V7.71804H92.6621C92.7992 7.71804 92.8905 7.80938 92.8905 7.94639V8.49442C92.8905 8.54009 92.8448 8.63142 92.8448 8.67709C92.7992 8.72276 92.7535 8.72276 92.6621 8.72276H91.3834V11.1889C91.3834 11.4172 91.4291 11.5542 91.4748 11.5999C91.5661 11.6456 91.6574 11.6912 91.7488 11.6912C91.8858 11.6912 92.0228 11.6456 92.1598 11.5999C92.2968 11.5542 92.4338 11.5086 92.4795 11.4629C92.5708 11.4172 92.6165 11.4172 92.6621 11.4629C92.7078 11.5086 92.7535 11.5542 92.7535 11.5999L92.9818 12.1479C93.0275 12.2849 92.9818 12.3763 92.8905 12.422C92.8448 12.422 92.7992 12.4676 92.7078 12.5133C92.6165 12.559 92.4795 12.6046 92.3425 12.6503C92.2055 12.696 92.0684 12.7416 91.8858 12.7416C91.7488 12.7873 91.5661 12.7873 91.4291 12.7873C91.2007 12.7873 90.9724 12.7416 90.8354 12.696C90.6527 12.6046 90.5614 12.5133 90.47 12.3763C90.3787 12.2393 90.2874 12.1023 90.2874 11.9196C90.2417 11.7369 90.2417 11.5542 90.2417 11.3259V8.72276V8.72276Z" fill="white"/>
<path d="M12.8327 15.4361C12.7871 15.4818 12.7414 15.5275 12.6501 15.5275C12.6044 15.5731 12.5131 15.5731 12.4674 15.6188C12.4217 15.6645 12.3304 15.6645 12.2847 15.7101C12.239 15.7558 12.1477 15.8015 12.0564 15.8015C12.0107 15.8471 11.965 15.8471 11.8737 15.8928C11.006 16.3038 10.0469 16.4865 9.04221 16.4865C5.79972 16.4865 3.10525 14.2031 2.42021 11.1432C2.32887 10.6865 2.2832 10.1842 2.2832 9.68183C2.2832 7.0787 3.69894 4.84091 5.84539 3.69919C5.48003 3.9732 5.06901 4.24722 4.74933 4.5669C3.79028 5.52595 3.19658 6.85035 3.19658 8.26609C3.19658 9.7275 3.79028 11.0062 4.74933 11.9653C5.70838 12.9243 7.03278 13.518 8.49419 13.518C9.22489 13.518 9.90993 13.381 10.5493 13.107C10.9146 12.97 11.28 12.7417 11.5997 12.5133C11.6453 12.5133 11.6453 12.4676 11.691 12.4676C11.691 12.4676 11.691 12.4676 11.7367 12.4676C13.4721 11.2346 14.6595 9.17947 14.6595 6.89602C14.6595 3.15116 11.5997 0.091338 7.85482 0.091338C7.48947 0.091338 7.16979 0.137007 6.80443 0.182676C7.26112 0.045669 7.80915 0 8.35718 0C12.9697 0 16.7146 3.74486 16.7146 8.35743C16.6689 11.3259 15.1619 13.929 12.8327 15.4361Z" fill="url(#paint0_linear)"/>
<path d="M11.9196 15.9387C10.8236 16.4411 9.63616 16.7608 8.31176 16.7608C3.74486 16.7608 0 13.0159 0 8.35766C0 4.93248 2.0551 2.00967 4.97792 0.730934C5.06926 0.685264 5.1606 0.639595 5.25194 0.593926C5.2976 0.548257 5.38894 0.548257 5.43461 0.502588C5.57162 0.456919 5.66296 0.456919 5.75429 0.41125C6.07398 0.319912 6.39366 0.228574 6.75901 0.137236C7.0787 0.0915674 7.44405 0.0458984 7.8094 0.0458984C11.5543 0.0458984 14.6141 3.10572 14.6141 6.85058C14.6141 9.1797 13.4724 11.1891 11.6913 12.4222C11.8739 12.2852 12.0566 12.1025 12.2393 11.9655C13.1983 11.0065 13.792 9.72773 13.792 8.26632C13.792 6.80491 13.1983 5.52618 12.2393 4.56713C11.2802 3.60808 9.95584 3.01438 8.49443 3.01438C7.71806 3.01438 6.94169 3.19706 6.25665 3.51674C6.16532 3.56241 6.11965 3.56241 6.02831 3.60808C5.98264 3.65375 5.93697 3.69942 5.8913 3.74509C3.79053 4.88681 2.32912 7.17026 2.32912 9.72773C2.32912 10.2301 2.37479 10.7324 2.46613 11.1891C3.15116 14.249 5.84563 16.5324 9.08813 16.5324C10.0928 16.5324 11.0519 16.3041 11.9196 15.9387Z" fill="url(#paint1_linear)"/>
<defs>
<linearGradient id="paint0_linear" x1="16.6735" y1="8.27116" x2="2.32997" y2="8.27116" gradientUnits="userSpaceOnUse">
<stop stop-color="white"/>
<stop offset="1" stop-color="white" stop-opacity="0"/>
</linearGradient>
<linearGradient id="paint1_linear" x1="14.591" y1="8.40799" x2="0" y2="8.40799" gradientUnits="userSpaceOnUse">
<stop stop-color="white" stop-opacity="0"/>
<stop offset="1" stop-color="white"/>
</linearGradient>
</defs>
</svg>
