<svg width="72" height="19" viewBox="0 0 72 19" fill="none" xmlns="http://www.w3.org/2000/svg">
<path d="M6.60275 1.98626C6.60275 1.25929 6.1865 0.581154 5.56705 0.302007C5.24796 0.1649 4.68621 0.0780983 3.83447 0.0780983C3.08827 0.0780983 1.92631 0.137282 1.41438 0.137282C1.05534 0.137282 0.513319 0.0973331 0.212965 0.0973331C0.183867 0.145666 0.163647 0.213233 0.163647 0.251702C0.163647 0.29165 0.163646 0.397193 0.193238 0.446019C0.377198 0.504709 0.677058 0.551562 0.871376 0.601868C1.03561 0.745879 1.07457 0.87263 1.13277 1.15375C1.16137 1.49158 1.1811 1.91869 1.1811 2.65404C1.1811 4.69733 1.17173 5.77101 1.14214 6.00379C1.10416 6.29527 0.910338 6.59513 0.590257 6.69031C0.444765 6.71991 0.231214 6.76873 0.0294984 6.78747C0.0196345 6.8363 0.00927734 6.90387 0.00927734 6.99067C0.00927734 7.06859 0.0196346 7.07895 0.0378827 7.12777C0.347607 7.12777 1.25853 7.08783 1.60722 7.08783C2.46932 7.08783 3.35016 7.12777 3.70772 7.12777H3.95037C3.97996 7.08783 3.97996 7.02026 3.97996 6.97341C3.97996 6.91422 3.97996 6.8363 3.96023 6.79783C3.66925 6.75985 3.23426 6.70116 3.05029 6.48761C2.95314 6.37319 2.85598 6.20649 2.85598 5.91699L2.82639 3.7869C3.40737 3.82487 4.0278 3.84411 4.36662 3.84411C4.81197 3.84411 5.18927 3.76766 5.48913 3.6705C6.17663 3.41059 6.60275 2.73048 6.60275 1.98626ZM4.87066 1.94631C4.87066 2.44048 4.69558 2.87597 4.37698 3.15709C4.17329 3.32182 3.85321 3.41898 3.36939 3.41898C3.16619 3.41898 3.01035 3.41059 2.95314 3.39974C2.87571 3.38938 2.82639 3.381 2.82639 3.33069L2.83674 0.494352C2.95314 0.485967 3.11786 0.446019 3.39898 0.446019C4.0569 0.446019 4.46378 0.610745 4.65711 1.01812C4.79175 1.27853 4.87066 1.60798 4.87066 1.94631V1.94631ZM15.385 6.96305C15.385 6.91422 15.3663 6.79783 15.3367 6.75985C15.2405 6.75985 14.844 6.74062 14.6985 6.6331C14.6497 6.57589 14.5727 6.45999 14.5333 6.39045C14.407 5.94658 14.263 5.64623 14.117 5.2788C13.9133 4.79449 13.6332 4.33828 13.4009 4.12523C13.3131 4.04878 13.0133 3.92203 12.6739 3.80564C12.5196 3.74843 12.3938 3.7001 12.2774 3.65127C12.4224 3.62217 12.49 3.61132 12.6739 3.59406C13.391 3.50578 13.5553 3.381 13.7387 3.23502C14.1269 2.94354 14.3389 2.49967 14.3389 1.9759C14.3389 1.19172 13.8359 0.437142 13.1292 0.213233C12.8959 0.145666 12.4816 0.10769 11.9682 0.10769C11.2412 0.10769 10.2247 0.175257 9.74093 0.175257C9.59494 0.175257 8.75208 0.156023 8.41375 0.156023C8.26776 0.156023 7.90034 0.137282 7.84313 0.137282C7.81354 0.204849 7.7943 0.2808 7.7943 0.321242C7.7943 0.359217 7.80417 0.456376 7.81354 0.494352C7.97826 0.513586 8.27862 0.551562 8.43348 0.581154C8.66528 0.756237 8.7432 0.891864 8.83937 1.10492C8.88919 1.41563 8.89757 2.20819 8.89757 3.57334C8.89757 4.56219 8.90793 5.70344 8.85959 6.07284C8.83099 6.31401 8.7432 6.604 8.46208 6.7199C8.3373 6.74062 8.10403 6.77909 7.91069 6.78747C7.8811 6.8363 7.86187 6.93346 7.86187 6.98179C7.86187 7.01138 7.8811 7.08783 7.90034 7.13616C8.03744 7.13616 9.5185 7.10854 9.82724 7.10854C10.4467 7.10854 10.9705 7.13616 11.5223 7.13616C11.5411 7.09818 11.5603 7.03062 11.5603 6.99067C11.5603 6.92458 11.5411 6.82742 11.5223 6.78747C11.328 6.76873 11.0868 6.71152 10.9803 6.69031C10.7382 6.57589 10.5631 6.3436 10.5631 6.00379L10.5542 3.76766C10.6306 3.75731 10.7278 3.75731 10.8057 3.75731C10.9305 3.75731 11.0765 3.77802 11.3182 3.91167C11.6767 4.11635 11.8518 4.26233 12.0841 4.6194C12.3938 5.10322 12.5975 5.99343 12.6942 6.70116C12.7228 6.90387 12.7997 7.07895 12.9846 7.09818C13.0616 7.10854 13.575 7.12777 13.9429 7.12777H15.3278C15.3663 7.08783 15.385 7.01138 15.385 6.96305V6.96305ZM12.5778 1.89945C12.5778 2.49967 12.1709 3.18668 11.6974 3.30308C11.5031 3.35141 11.26 3.381 10.9029 3.381C10.8057 3.381 10.6602 3.381 10.5438 3.35979L10.5345 2.53764V0.756236C10.5345 0.640336 10.5631 0.572276 10.5922 0.543178C10.6208 0.513587 10.7964 0.485968 11 0.485968C11.7546 0.485968 12.0841 0.551562 12.3548 1.00776C12.5092 1.26965 12.5778 1.57 12.5778 1.89945V1.89945ZM20.3426 6.95269C20.3426 6.90387 20.3322 6.79783 20.314 6.75985C20.1685 6.7495 19.7719 6.71152 19.5978 6.67305C19.4425 6.48761 19.335 6.27603 19.2679 5.92735C19.2585 5.46227 19.2482 4.50301 19.2482 3.60294V1.22132C19.2482 0.959431 19.3547 0.756237 19.4233 0.697547C19.6072 0.523943 19.9751 0.485968 20.2854 0.446019C20.3046 0.40755 20.314 0.302007 20.314 0.262059C20.314 0.204849 20.2854 0.126431 20.2656 0.10769H19.9845C19.5776 0.10769 18.6287 0.156023 18.2993 0.156023C18.0966 0.156023 17.1477 0.126431 16.7216 0.118047H16.5095C16.4799 0.156023 16.4607 0.194492 16.4607 0.2808C16.4607 0.321242 16.469 0.417907 16.4799 0.46476C16.9548 0.504709 17.1664 0.551562 17.235 0.601868C17.3514 0.688669 17.5151 0.902221 17.555 1.42402C17.5639 1.60798 17.5733 2.00549 17.5827 2.89718C17.5935 3.381 17.6029 4.05717 17.6029 4.6194C17.6029 4.90052 17.5827 5.53033 17.5733 5.86816C17.555 6.10095 17.5057 6.32289 17.4391 6.44964C17.3228 6.54679 17.2059 6.7199 16.4986 6.76873C16.4799 6.80671 16.469 6.93346 16.469 6.97341C16.469 7.04936 16.4893 7.08783 16.4893 7.13616H16.654C17.0416 7.13616 18.0098 7.08783 18.5128 7.08783C18.6583 7.08783 19.6644 7.11742 19.9845 7.11742H20.3046C20.3322 7.06859 20.3426 6.99067 20.3426 6.95269V6.95269ZM29.9164 0.242825C29.9164 0.204849 29.9055 0.137282 29.8868 0.10769H29.6629C29.1791 0.10769 28.8703 0.126431 27.9979 0.126431C27.6975 0.126431 27.2517 0.10769 27.1461 0.10769H26.8946C26.865 0.126431 26.8547 0.23444 26.8547 0.272416C26.8547 0.321242 26.865 0.397193 26.905 0.437142C27.0593 0.485968 27.6492 0.551562 27.9022 0.718261C28.0758 0.920962 28.1522 1.32686 28.1813 1.70514C28.1922 1.84915 28.2026 1.99464 28.2026 2.39215V4.41621C28.2026 4.649 28.1922 4.72495 28.1813 4.83296C28.0186 4.64899 27.7843 4.30031 27.3977 3.86482L24.1678 0.2808C24.1382 0.242824 24.081 0.194492 24.0218 0.156023C23.9448 0.156023 23.8087 0.145666 23.7323 0.145666C23.1113 0.145666 21.9888 0.118047 21.8241 0.118047C21.8049 0.156023 21.7861 0.213233 21.7861 0.251702C21.7861 0.272416 21.8049 0.40755 21.8138 0.437142C21.9592 0.475118 22.2793 0.523944 22.5407 0.805063C22.6966 0.978173 22.9673 1.22132 23.0541 1.41563C23.0832 1.4832 23.0931 1.58874 23.0931 1.72437C23.0931 2.22743 23.0645 2.93516 23.0645 3.61132V5.57866C23.0645 5.89776 23.0349 6.14928 23.0053 6.31401C22.8026 6.52756 22.4929 6.68193 21.9888 6.80671C21.9696 6.85701 21.9509 6.93346 21.9509 6.98179C21.9509 7.01138 21.9592 7.10854 21.9795 7.11742H22.1634C22.3568 7.11742 22.8026 7.08783 23.0931 7.08783C23.5187 7.08783 23.8087 7.11742 24.2057 7.11742H24.7838C24.8217 7.10854 24.8321 6.99067 24.8321 6.95269C24.8321 6.91422 24.8217 6.8363 24.803 6.79783C24.4666 6.71152 23.9739 6.6331 23.6445 6.19762C23.5779 6.05212 23.5187 5.33601 23.5187 4.99571C23.5187 4.68697 23.5084 4.26233 23.5084 3.68974C23.5084 2.9248 23.5187 2.25702 23.5286 1.91869C23.5863 1.98626 23.6543 2.07306 23.7027 2.13027L28.173 7.15737C28.2213 7.20422 28.3949 7.21458 28.4437 7.21458C28.4921 7.21458 28.5216 7.21458 28.5596 7.19534C28.5789 7.14652 28.6464 6.99067 28.6464 6.75985C28.6464 6.47873 28.6361 6.18726 28.6361 6.04374V2.00549C28.6361 0.794705 29.2087 0.456376 29.8764 0.426785C29.9055 0.377959 29.9164 0.29165 29.9164 0.242825V0.242825ZM37.4538 5.771C37.4247 5.6842 37.3463 5.53871 37.1244 5.53871C37.1047 5.53871 37.0751 5.54907 37.0568 5.54907C36.4749 6.37319 35.8357 6.68193 35.1097 6.68193C34.1026 6.68193 33.3865 6.00379 33.1537 5.40358C33.0274 5.08399 32.8538 4.38711 32.8538 3.64091C32.8538 2.93516 32.9604 2.36256 33.1443 1.94631C33.57 0.823804 34.1894 0.475117 34.9455 0.475117C35.5753 0.475117 36.0976 0.834654 36.4946 1.34609C36.6593 1.57 36.8329 2.00549 36.9873 2.5189C37.0272 2.52729 37.114 2.54652 37.2008 2.54652C37.259 2.54652 37.3951 2.49967 37.4331 2.45972C37.4247 2.35418 37.3276 1.60798 37.3276 1.37568C37.3276 1.08618 37.4045 0.610745 37.4045 0.426785C37.3463 0.367602 37.153 0.329626 37.0272 0.321242C36.8817 0.426785 36.8329 0.551562 36.6978 0.718261C36.1558 0.329626 35.6517 0.0297658 34.5484 0.0297658C33.532 0.0297658 32.7271 0.377959 32.1175 0.989023C31.4497 1.64645 31.0818 2.55688 31.0818 3.71933C31.0818 4.95773 31.6046 5.97568 32.447 6.61436C32.9806 7.00102 33.7643 7.26291 34.7028 7.26291C35.884 7.26291 36.7461 6.81706 37.1816 6.2277C37.3552 5.99343 37.3749 5.93573 37.4538 5.771V5.771ZM45.6448 5.43268C45.6448 5.29754 45.6448 5.23885 45.6344 5.15205C45.5861 5.12246 45.5668 5.12246 45.4889 5.12246C45.4213 5.12246 45.3449 5.12246 45.2754 5.14169C44.9479 5.8874 44.4724 6.46838 44.2115 6.62275C44.0665 6.71152 43.8436 6.73026 43.4846 6.73026H42.6915C42.3823 6.73026 42.1392 6.70116 42.0524 6.68193C41.9069 6.65234 41.7525 6.42004 41.6849 6.26568C41.6164 6.10095 41.5774 6.10095 41.5774 5.65511V3.53537H41.9365C42.0326 3.53537 42.2659 3.55411 42.5263 3.6705C42.769 3.77802 42.8661 3.92203 42.9623 4.07837C43.0501 4.21153 43.1073 4.74615 43.1265 4.88129C43.1758 4.90891 43.3016 4.91926 43.3795 4.91926C43.456 4.91926 43.5043 4.90891 43.5719 4.87093C43.5719 4.60905 43.5142 3.9028 43.5142 3.51466C43.5142 3.03034 43.5817 2.36256 43.6103 2.01585C43.5719 1.99464 43.5142 1.9759 43.4175 1.9759C43.3499 1.9759 43.2237 1.9759 43.166 2.00549C43.1369 2.14062 43.0299 2.54652 43.0101 2.57611C42.8661 2.81876 42.6126 3.00272 42.3527 3.08065C42.1781 3.1275 41.9261 3.15709 41.7905 3.15709H41.5878V2.25702C41.5878 1.32686 41.6065 1.027 41.6164 0.851916C41.6257 0.737495 41.645 0.610745 41.6553 0.523943C41.7421 0.513586 41.7905 0.504709 42.2363 0.504709C42.7966 0.504709 43.0594 0.513586 43.1463 0.513586C43.4175 0.5343 43.6207 0.591511 43.7662 0.707904C44.1341 0.989023 44.4152 1.43289 44.6954 1.90833C44.7536 1.92707 44.8507 1.92707 44.8991 1.92707C44.9572 1.92707 44.9666 1.90833 45.0445 1.86986C45.0445 1.27853 45.0051 0.513587 44.9859 0.272416C44.9755 0.175258 44.9572 0.145666 44.7639 0.145666C44.6855 0.145666 44.3181 0.126431 43.9309 0.126431C43.3795 0.126431 43.1556 0.137282 42.3128 0.137282C41.858 0.137282 40.919 0.145666 40.522 0.145666C39.9415 0.145666 39.4473 0.126431 39.1958 0.126431H38.8658C38.8367 0.1649 38.8185 0.242824 38.8185 0.2808C38.8185 0.329626 38.8367 0.437142 38.8658 0.475117C38.9822 0.513586 39.4375 0.504709 39.5736 0.581154C39.7092 0.697547 39.834 0.74588 39.9218 1.21096C39.9415 1.41563 39.9509 1.9759 39.9509 2.42174V4.41621C39.9509 4.82211 39.9415 5.41393 39.9311 5.65511C39.9119 6.03289 39.7768 6.48761 39.7196 6.57589C39.6308 6.64395 39.2338 6.70116 38.8471 6.7199C38.8185 6.77909 38.7983 6.87625 38.7983 6.93346C38.7983 6.99067 38.8185 7.06021 38.8471 7.10854H39.1662C39.4764 7.10854 40.6186 7.07895 40.881 7.07895C41.1227 7.07895 41.5878 7.09818 42.149 7.09818C42.4582 7.09818 43.3692 7.15737 45.3252 7.15737C45.4021 7.15737 45.4889 7.16575 45.5861 7.13616C45.6157 7.08783 45.6157 7.06859 45.625 6.98179C45.6448 6.78747 45.6448 6.21685 45.6448 5.43268ZM53.99 2.28612V0.310392C53.99 0.1649 53.9328 0.126431 53.7873 0.126431C53.4969 0.126431 51.968 0.1649 50.4189 0.1649C49.2174 0.1649 48.2202 0.145666 47.6782 0.145666H46.9606C46.8358 0.145666 46.7969 0.175257 46.7969 0.310392V2.15986C46.8358 2.18896 46.9024 2.19981 46.9522 2.19981C46.9902 2.19981 47.1263 2.19981 47.1648 2.1786C47.5998 1.29924 48.0076 0.823804 48.5211 0.561919C48.8106 0.534301 49.3812 0.523943 49.5365 0.523943C49.5464 0.629486 49.5568 0.969788 49.5651 1.37568C49.5755 2.07306 49.5755 2.37292 49.5755 4.01919C49.5755 5.44353 49.5651 6.08172 49.5464 6.23608C49.5079 6.50685 49.5568 6.71152 48.3943 6.75985C48.3647 6.82742 48.3647 6.90387 48.3647 6.98179C48.3647 7.02026 48.3647 7.09818 48.3751 7.13616H48.7519C49.1109 7.13616 49.9528 7.09818 50.3025 7.09818C50.5826 7.09818 51.4836 7.12777 52.0735 7.12777H52.3443C52.3734 7.07895 52.3734 6.97341 52.3734 6.92458C52.3734 6.86589 52.364 6.79783 52.3354 6.7495C52.2279 6.7495 51.6084 6.76873 51.3382 6.56554C51.3086 6.45999 51.2504 6.17887 51.2504 5.83907C51.241 4.79449 51.2306 4.39747 51.2306 3.70009C51.2306 2.79953 51.241 2.18896 51.241 0.513586C51.3761 0.513586 51.6868 0.504709 51.9763 0.513586C52.5775 0.678312 52.868 0.902221 53.1289 1.24893C53.2932 1.47284 53.4682 1.84915 53.6419 2.30535C53.7005 2.32458 53.7494 2.32458 53.8066 2.32458C53.8455 2.32458 53.9713 2.30535 53.99 2.28612V2.28612ZM62.5015 3.50578C62.5015 2.15098 61.9008 1.11528 60.7773 0.494352C60.1781 0.1649 59.5774 0.000174604 58.9382 0.000174604C57.5252 0.000174604 56.2469 0.843038 55.6743 1.8023C55.3064 2.40251 55.1145 3.05993 55.1145 3.75731C55.1145 4.87093 55.6565 5.96532 56.4984 6.59513C57.1381 7.06021 57.8636 7.29053 58.7064 7.29053C59.2208 7.29053 59.7037 7.19534 60.1781 7.01138C60.7108 6.80671 61.1655 6.48761 61.5235 6.09059C62.1533 5.40358 62.5015 4.52225 62.5015 3.50578V3.50578ZM60.7492 3.32182C60.7492 4.78413 60.3424 6.07284 59.791 6.52756C59.5103 6.75985 59.1612 6.87625 58.7641 6.87625C58.2231 6.87625 57.7472 6.6627 57.4774 6.2277C57.1095 5.66546 56.9053 4.6194 56.9053 3.71045C56.9053 2.36256 57.2535 1.30812 57.8734 0.794706C58.2029 0.523944 58.5412 0.417907 58.8805 0.417907C59.4043 0.417907 59.9074 0.669435 60.1974 1.08618C60.5653 1.58874 60.7492 2.31571 60.7492 3.32182V3.32182ZM71.8446 0.242825C71.8446 0.204849 71.8367 0.137282 71.816 0.10769H71.594C71.1092 0.10769 70.801 0.126431 69.928 0.126431C69.6277 0.126431 69.1818 0.10769 69.0763 0.10769H68.8247C68.7956 0.126431 68.7858 0.23444 68.7858 0.272416C68.7858 0.321242 68.7956 0.397193 68.8336 0.437142C68.99 0.485968 69.5798 0.551562 69.8309 0.718261C70.0059 0.920962 70.0834 1.32686 70.1125 1.70514C70.1213 1.84915 70.1312 1.99464 70.1312 2.39215V4.41621C70.1312 4.649 70.1213 4.72495 70.1125 4.83296C69.9472 4.64899 69.7154 4.30031 69.3273 3.86482L66.0939 0.2808C66.0653 0.242824 66.0066 0.194492 65.9489 0.156023C65.871 0.156023 65.7359 0.145666 65.6594 0.145666C65.038 0.145666 63.916 0.118047 63.7508 0.118047C63.732 0.156023 63.7118 0.213233 63.7118 0.251702C63.7118 0.272416 63.7321 0.40755 63.7404 0.437142C63.8859 0.475118 64.2055 0.523944 64.4679 0.805063C64.6223 0.978173 64.893 1.22132 64.9803 1.41563C65.0094 1.4832 65.0193 1.58874 65.0193 1.72437C65.0193 2.22743 64.9897 2.93516 64.9897 3.61132V5.57866C64.9897 5.89776 64.9616 6.14928 64.932 6.31401C64.7298 6.52756 64.4186 6.68193 63.916 6.80671C63.8958 6.85701 63.878 6.93346 63.878 6.98179C63.878 7.01138 63.8859 7.10854 63.9057 7.11742H64.0891C64.2839 7.11742 64.7298 7.08783 65.0193 7.08783C65.4454 7.08783 65.7359 7.11742 66.1329 7.11742H66.7139C66.7519 7.10854 66.7627 6.99067 66.7627 6.95269C66.7627 6.91422 66.7519 6.8363 66.7331 6.79783C66.3948 6.71152 65.9001 6.6331 65.5707 6.19762C65.5031 6.05212 65.4454 5.33601 65.4454 4.99571C65.4454 4.68697 65.4355 4.26233 65.4355 3.68974C65.4355 2.9248 65.4454 2.25702 65.4553 1.91869C65.514 1.98626 65.5815 2.07306 65.6294 2.13027L70.1031 7.15737C70.1509 7.20422 70.325 7.21458 70.3739 7.21458C70.4217 7.21458 70.4508 7.21458 70.4903 7.19534C70.5095 7.14652 70.5771 6.99067 70.5771 6.75985C70.5771 6.47873 70.5672 6.18726 70.5672 6.04374V2.00549C70.5672 0.794705 71.1383 0.456376 71.8061 0.426785C71.8367 0.377959 71.8446 0.29165 71.8446 0.242825" fill="white"/>
<path d="M7.69724 11.1004C7.69724 11.0625 7.678 11.0033 7.6494 10.9757H7.36926C7.06842 10.9757 6.66153 10.9944 6.31285 10.9944C5.92619 10.9944 5.4907 10.9757 5.20909 10.9757H4.86089C4.8318 11.0329 4.82144 11.0516 4.82144 11.1004C4.82144 11.1404 4.8318 11.1784 4.85054 11.2272C4.89048 11.2272 5.59673 11.2356 5.7225 11.4111C5.82903 11.5566 6.06132 11.9142 6.09979 12.1273C6.11853 12.2244 6.17771 12.6214 6.17771 13.1926C6.17771 14.0147 6.17771 14.5661 6.16834 14.8576C6.14812 15.4006 6.08993 15.8257 5.99277 16.1448C5.7225 16.9877 5.09368 17.4039 4.09595 17.4039C3.66934 17.4039 3.30192 17.3176 2.9626 17.1613C2.33279 16.8525 2.03293 16.2607 2.02406 15.9416L1.97474 13.0382L1.96586 11.8565C1.96586 11.6331 2.24599 11.4299 2.34266 11.314C2.42058 11.2755 2.84621 11.2356 3.08836 11.2168C3.11796 11.1596 3.1367 11.13 3.1367 11.0812C3.1367 11.0329 3.10809 10.984 3.06913 10.9564L2.7017 10.9653C2.34266 10.9757 1.8687 10.984 1.56884 10.984C1.10376 10.984 0.744719 10.9757 0.455216 10.9757H0.0493193C0.00937082 11.0033 0 11.0625 0 11.1108C0 11.1596 0.00937087 11.1976 0.0389623 11.2272C0.3477 11.2652 0.551388 11.2948 0.687509 11.3224C0.851741 11.4195 0.968628 11.5843 1.02682 11.749C1.0362 11.8757 1.05543 12.1845 1.05543 12.795V15.1195C1.05543 15.7197 1.08502 16.1448 1.15259 16.417C1.27737 16.9201 1.54862 17.3176 1.99447 17.6071C2.46892 17.9173 3.05976 18.0717 3.7665 18.0717C4.41554 18.0717 4.96693 17.9366 5.43201 17.6747C5.91583 17.4143 6.21569 16.9877 6.39028 16.3874C6.48645 16.0304 6.54563 15.6417 6.54563 15.2358V13.3765C6.54563 13.0278 6.56438 12.5923 6.56438 12.4173C6.57473 11.895 6.71036 11.5843 6.85585 11.352C7.01022 11.3036 7.14585 11.2755 7.65926 11.2168C7.678 11.1784 7.69724 11.1488 7.69724 11.1004ZM16.6635 11.0516C16.6635 11.0136 16.6541 10.984 16.6339 10.9564H16.4119C15.9281 10.9564 15.7146 10.9757 14.8441 10.9757C14.5427 10.9757 14.0979 10.9564 13.9923 10.9564H13.7388C13.7112 10.9757 13.7009 11.0432 13.7009 11.0812C13.7009 11.13 13.7112 11.1488 13.7492 11.1872C13.9045 11.2356 14.4954 11.3036 14.7469 11.4684C14.92 11.673 14.9984 12.0789 15.0275 12.4567C15.0364 12.6007 15.0468 12.7467 15.0468 13.1437V16.02C15.0468 16.2523 15.0364 16.3302 15.0275 16.4363C14.8628 16.2523 14.5822 15.8933 14.2049 15.4474L10.5055 11.13C10.4759 11.0901 10.4187 11.0432 10.36 11.0033C10.2825 11.0033 10.1864 10.9944 10.1084 10.9944C9.489 10.9944 8.94698 10.9653 8.78127 10.9653C8.76302 11.0033 8.75365 11.0225 8.75365 11.0625C8.75365 11.0812 8.76302 11.1596 8.7719 11.1872C8.91739 11.2272 9.34351 11.2755 9.51859 11.4595C9.67296 11.6331 9.90525 11.8358 9.99205 12.0301C10.0216 12.0977 10.032 12.2037 10.032 12.3408C10.032 12.8439 10.0024 13.7632 10.0024 14.4413V16.5038C10.0024 16.8229 9.97331 17.0745 9.94471 17.2392C9.74053 17.4527 9.4308 17.6071 8.92725 17.7339C8.90802 17.7822 8.88879 17.8014 8.88879 17.8498C8.88879 17.8794 8.89766 17.9366 8.91739 17.9454H9.10135C9.29468 17.9454 9.74053 17.9173 10.032 17.9173C10.4571 17.9173 10.6505 17.9454 11.047 17.9454H11.6294C11.6679 17.9366 11.6763 17.8586 11.6763 17.8202C11.6763 17.7822 11.6679 17.7615 11.6477 17.723C11.3099 17.6367 10.8162 17.5583 10.4867 17.1228C10.4187 16.9773 10.36 16.242 10.36 15.9036C10.36 15.5929 10.3506 15.0899 10.3506 14.5192C10.3506 13.7543 10.36 12.6979 10.3703 12.3596C10.4285 12.4276 10.5158 12.5332 10.5829 12.6111L15.1725 17.9854C15.2204 18.0337 15.2401 18.0426 15.2899 18.0426C15.3363 18.0426 15.3077 18.0426 15.3471 18.0234C15.3659 17.9745 15.3955 17.8202 15.3955 17.5879C15.3955 17.3068 15.3861 17.0173 15.3861 16.8718V12.7571C15.3861 11.5463 15.9577 11.206 16.6255 11.1784C16.6541 11.13 16.6635 11.1004 16.6635 11.0516ZM21.04 17.8202C21.04 17.7718 21.0312 17.723 21.0114 17.685C20.8654 17.6747 20.4694 17.6367 20.2943 17.5982C20.1395 17.4143 20.0339 17.2012 19.9644 16.8525C19.956 16.3874 19.9461 15.333 19.9461 14.431V11.9729C19.9461 11.711 20.0522 11.5063 20.1207 11.4491C20.3047 11.2755 20.6721 11.2356 20.9818 11.1976C21.0021 11.1596 21.0114 11.1108 21.0114 11.0728C21.0114 11.0136 20.9818 10.9757 20.9621 10.9564H20.682C20.2751 10.9564 19.6941 11.0033 19.3642 11.0033C19.1625 11.0033 18.5805 10.9757 18.1554 10.9653H17.9418C17.9127 11.0033 17.8935 11.0033 17.8935 11.0901C17.8935 11.13 17.9028 11.168 17.9127 11.2168C18.3867 11.2563 18.6002 11.3036 18.6668 11.352C18.7842 11.4402 18.9489 11.6523 18.9879 12.1761C18.9967 12.3596 19.0071 12.8542 19.0165 13.7439C19.0258 14.2278 19.0367 14.8872 19.0367 15.4474C19.0367 15.73 19.0165 16.4555 19.0071 16.7933C18.9879 17.0261 18.9395 17.2495 18.871 17.3743C18.7556 17.4715 18.6392 17.6451 17.9324 17.6954C17.9127 17.7339 17.9028 17.8014 17.9028 17.8394C17.9028 17.9173 17.9231 17.9173 17.9231 17.9662H18.0868C18.4745 17.9662 19.0747 17.9173 19.5777 17.9173C19.7232 17.9173 20.3619 17.9454 20.682 17.9454H21.0021C21.0312 17.8986 21.04 17.8586 21.04 17.8202V17.8202ZM29.519 11.0728C29.519 11.0329 29.5086 10.9757 29.4701 10.9653H29.1407C28.9084 10.9653 28.5405 10.984 28.3758 10.984C27.5916 10.984 27.311 10.9357 27.1946 10.9357H27.021C27.0002 10.984 26.9707 11.0136 26.9707 11.0625C26.9707 11.1004 26.9914 11.13 26.9914 11.168C27.2325 11.1976 27.4461 11.2459 27.6592 11.314C27.7755 11.4299 27.9023 11.6627 27.9023 11.9246C27.9023 12.0197 27.8051 12.4759 27.668 12.8054L26.1105 16.639L24.197 11.7875C24.2256 11.5566 24.3513 11.3327 24.5151 11.2459C24.6788 11.2272 24.8805 11.168 25.1424 11.168C25.1616 11.13 25.1804 11.0728 25.1804 11.0329C25.1804 10.9944 25.172 10.9357 25.132 10.9268H24.8894C24.5925 10.9268 24.1383 10.9653 23.6248 10.9653C23.4024 10.9653 22.9669 10.9461 22.5403 10.9461H22.163C22.1433 10.984 22.1251 11.0033 22.1251 11.0625C22.1251 11.1197 22.1344 11.1404 22.1537 11.1784C22.4244 11.2459 22.6863 11.352 22.9669 11.5063C23.1509 11.7786 23.5484 12.7571 23.7615 13.2685L24.5629 15.2063C25.2292 16.8146 25.6262 17.8877 25.675 18.0717C25.7234 18.1013 25.675 18.1289 25.7618 18.1289C25.8486 18.1289 25.8398 18.1116 25.859 18.0633L28.3565 12.0597C28.4433 11.8461 28.579 11.6434 28.7052 11.5063C28.8596 11.3327 29.1792 11.2652 29.479 11.1976C29.4894 11.1596 29.519 11.1197 29.519 11.0728V11.0728ZM36.6875 16.3579C36.6875 16.2227 36.6875 16.1635 36.6786 16.0772C36.6298 16.0476 36.6111 16.0476 36.5331 16.0476C36.4651 16.0476 36.4754 16.0476 36.4074 16.0684C36.1938 16.7746 35.8269 17.2984 35.4097 17.5499C35.2647 17.6367 35.0028 17.6554 34.5875 17.6554H33.5025C33.1642 17.6451 32.9511 17.6263 32.8633 17.6071C32.7183 17.5795 32.563 17.3452 32.4964 17.1909C32.4268 17.0261 32.3889 16.9684 32.3889 16.5231V14.3146H32.6991C33.0088 14.3146 33.2603 14.3353 33.5217 14.4517C33.7644 14.5577 33.9483 14.7121 34.0445 14.8664C34.1323 15.0036 34.1614 15.5357 34.1806 15.6713C34.2285 15.7004 34.2581 15.7093 34.335 15.7093C34.4124 15.7093 34.4218 15.7004 34.4903 15.661C34.4903 15.4006 34.4321 14.6928 34.4321 14.3062C34.4321 13.8219 34.4997 13.2305 34.5283 12.8818C34.4903 12.8626 34.4706 12.8439 34.3739 12.8439C34.3054 12.8439 34.2778 12.8439 34.2191 12.8715C34.1905 13.0086 34.1121 13.4145 34.0938 13.4441C33.9483 13.6848 33.6085 13.8791 33.3481 13.9575C33.173 14.0058 32.9215 14.0354 32.5536 14.0354H32.3992V13.085C32.3992 12.1569 32.4184 11.7786 32.4268 11.6035C32.4372 11.4871 32.4564 11.3623 32.4668 11.2755C32.5536 11.2652 32.8347 11.2563 33.2805 11.2563C33.8408 11.2563 34.2581 11.2652 34.3453 11.2652C34.6161 11.2844 34.8193 11.3431 34.9648 11.4595C35.4392 11.8274 35.565 12.0701 35.8269 12.6599C35.8851 12.6791 35.8935 12.6791 35.9433 12.6791C36.0005 12.6791 36.0109 12.6599 36.0873 12.6214C36.0873 12.0301 36.0488 11.3623 36.0296 11.1197C36.0192 11.0225 36.0005 10.9944 35.8072 10.9944C35.7297 10.9944 35.3618 10.9757 34.9752 10.9757C34.4218 10.9757 34.1999 10.984 33.357 10.984C32.9023 10.984 32.0994 10.9944 31.7018 10.9944C31.1209 10.9944 30.9941 10.9757 30.7416 10.9757H30.4107C30.3811 11.0136 30.3609 11.0516 30.3609 11.0901C30.3609 11.1404 30.3811 11.1872 30.4107 11.2272C30.5276 11.2652 30.9857 11.2563 31.1209 11.3327C31.256 11.4491 31.3818 11.4787 31.4695 11.9433C31.4888 12.1465 31.4991 12.8054 31.4991 13.2512V15.2442C31.4991 15.6501 31.4888 16.3199 31.4789 16.5611C31.4592 16.9393 31.3236 17.4143 31.2659 17.5011C31.1781 17.5686 30.7811 17.6263 30.3904 17.6451C30.3609 17.7043 30.3411 17.7422 30.3411 17.8014C30.3411 17.8586 30.3609 17.8877 30.3904 17.9366H30.7125C31.0237 17.9366 31.799 17.907 32.0594 17.907C32.3021 17.907 32.631 17.9262 33.1928 17.9262C33.5025 17.9262 34.4124 17.9854 36.3689 17.9854C36.4463 17.9854 36.5331 17.9957 36.6298 17.9662C36.6594 17.9173 36.6594 17.8986 36.6693 17.8118C36.6875 17.6175 36.6875 17.142 36.6875 16.3579V16.3579ZM44.8114 17.829C44.8114 17.7822 44.7931 17.723 44.7635 17.685C44.6669 17.685 44.2693 17.6658 44.1238 17.5583C44.076 17.5011 43.9986 17.3852 43.9596 17.3176C43.8339 16.8718 43.6987 16.4742 43.5527 16.1068C43.35 15.6225 43.0689 15.1663 42.8366 14.9547C42.7498 14.8768 42.4786 14.7501 42.1392 14.6356C41.9849 14.5764 41.8581 14.5281 41.7422 14.4793C41.8877 14.4517 41.9553 14.4413 42.1392 14.4221C42.7691 14.3442 42.9821 14.209 43.1661 14.063C43.5527 13.7735 43.8048 13.338 43.8048 12.8143C43.8048 12.0301 43.3012 11.2844 42.5945 11.0625C42.3622 10.9944 41.9449 10.9564 41.4325 10.9564C40.7065 10.9564 40.1635 11.0225 39.6797 11.0225C39.5357 11.0225 39.0603 11.0033 38.7219 11.0033C38.5764 11.0033 38.2085 10.984 38.1503 10.984C38.1217 11.0516 38.102 11.0728 38.102 11.1108C38.102 11.1488 38.1114 11.206 38.1217 11.2459C38.2859 11.2652 38.5858 11.3036 38.7412 11.3327C38.9735 11.5063 39.0514 11.6434 39.148 11.8565C39.1954 12.1652 39.2057 13.0382 39.2057 14.4033C39.2057 15.3902 39.2156 16.6306 39.1663 16.998C39.1382 17.2392 39.0514 17.5287 38.7698 17.6451C38.644 17.6658 38.4117 17.7043 38.2179 17.7146C38.1888 17.7615 38.1686 17.8014 38.1686 17.8498C38.1686 17.8794 38.1888 17.9173 38.2085 17.9662C38.3436 17.9662 39.4573 17.9366 39.767 17.9366C40.3874 17.9366 40.5418 17.9662 41.0932 17.9662C41.1134 17.9262 41.1331 17.8986 41.1331 17.8586C41.1331 17.7911 41.1134 17.7526 41.0932 17.7146C40.9008 17.6954 40.6577 17.6367 40.5512 17.6175C40.309 17.5011 40.1359 17.2688 40.1359 16.929L40.1255 14.5089C40.2035 14.4985 40.4836 14.4985 40.5605 14.4985C40.8224 14.4985 41.0848 14.5192 41.3353 14.6356C41.7038 14.7984 42.0524 15.0608 42.2847 15.4198C42.5945 15.9036 42.7981 16.8229 42.8953 17.5287C42.9234 17.7339 43.0013 17.907 43.1853 17.9262C43.2622 17.9366 43.3796 17.9558 43.7471 17.9558H44.7532C44.7931 17.9173 44.8114 17.8794 44.8114 17.829V17.829ZM42.7784 12.6979C42.7784 13.3173 42.2847 14.0147 41.7141 14.1415C41.4808 14.1898 41.142 14.2194 40.7065 14.2194C40.5901 14.2194 40.2607 14.2194 40.1157 14.1982L40.1063 13.3469V11.5167C40.1063 11.3899 40.1359 11.3224 40.1739 11.2948C40.2128 11.2652 40.6094 11.2356 40.8515 11.2356C41.761 11.2356 42.1782 11.3224 42.5077 11.7978C42.6916 12.0597 42.7784 12.3596 42.7784 12.6979ZM51.3466 16.0388C51.3466 15.2635 50.9999 14.7328 50.2527 14.3353C50.049 14.2194 49.692 14.0926 49.1786 13.9471C48.5877 13.7819 48.094 13.5896 47.7745 13.4145C47.5619 13.2981 47.2028 12.979 47.2028 12.3596C47.2028 11.7406 47.8331 11.2272 48.568 11.2272C49.149 11.2272 49.6145 11.5167 49.8947 11.9034C50.1378 12.2437 50.2246 12.398 50.4949 13.0086C50.5245 13.017 50.5625 13.0278 50.5921 13.0278C50.6789 13.0278 50.7568 12.979 50.8056 12.9302C50.776 12.6875 50.7282 12.3492 50.7282 12.0597C50.7282 11.8082 50.7864 11.4787 50.816 11.3036C50.7371 11.1872 50.6502 11.168 50.5245 11.168C50.3893 11.2563 50.2626 11.3899 50.1462 11.5167C49.508 11.0033 48.9852 10.9165 48.5009 10.9165C47.3104 10.9165 46.4586 11.711 46.4586 12.7655C46.4586 13.125 46.5834 13.4732 46.8157 13.8307C47.0292 14.1306 47.3395 14.3634 47.7562 14.5385C48.0363 14.6529 49.2945 15.0327 49.4691 15.1007C50.2434 15.4006 50.5348 15.661 50.5348 16.3475C50.5348 16.6878 50.3893 16.9877 50.1082 17.326C49.8567 17.6367 49.4592 17.7822 49.0336 17.7822C48.5784 17.7822 47.7942 17.5879 47.4065 17.0661C47.1742 16.7657 46.8453 16.1359 46.7481 15.7581C46.6806 15.7389 46.6806 15.7389 46.613 15.7389C46.5548 15.7389 46.4862 15.7581 46.429 15.7961C46.429 15.9229 46.468 16.5611 46.468 16.7554C46.468 17.2288 46.3802 17.4611 46.3615 17.6175C46.3901 17.7146 46.5548 17.8118 46.6717 17.8118C46.8739 17.6367 47.0865 17.5011 47.156 17.5011C47.2132 17.5011 47.3 17.5287 47.3863 17.5879C48.0161 17.9957 48.5399 18.0717 49.005 18.0717C50.3701 18.0717 51.3466 17.3852 51.3466 16.0388V16.0388ZM56.1306 17.8202C56.1306 17.7718 56.1202 17.723 56.1015 17.685C55.9575 17.6747 55.5595 17.6367 55.3849 17.5982C55.2305 17.4143 55.124 17.2012 55.0564 16.8525C55.0466 16.3874 55.0362 15.333 55.0362 14.431V11.9729C55.0362 11.711 55.1437 11.5063 55.2108 11.4491C55.3943 11.2755 55.7632 11.2356 56.0719 11.1976C56.0916 11.1596 56.1015 11.1108 56.1015 11.0728C56.1015 11.0136 56.0719 10.9757 56.0537 10.9564H55.7735C55.3661 10.9564 54.7847 11.0033 54.4552 11.0033C54.252 11.0033 53.671 10.9757 53.2454 10.9653H53.0319C53.0033 11.0033 52.984 11.0033 52.984 11.0901C52.984 11.13 52.9939 11.168 53.0033 11.2168C53.4787 11.2563 53.6913 11.3036 53.7588 11.352C53.8747 11.4402 54.039 11.6523 54.0789 12.1761C54.0883 12.3596 54.0967 12.8542 54.1065 13.7439C54.1169 14.2278 54.1263 14.8872 54.1263 15.4474C54.1263 15.73 54.1065 16.4555 54.0967 16.7933C54.0789 17.0261 54.0291 17.2495 53.9625 17.3743C53.8451 17.4715 53.7292 17.6451 53.0225 17.6954C53.0033 17.7339 52.9939 17.8014 52.9939 17.8394C52.9939 17.9173 53.0116 17.9173 53.0116 17.9662H53.1774C53.5655 17.9662 54.1652 17.9173 54.6683 17.9173C54.8143 17.9173 55.452 17.9454 55.7735 17.9454H56.0916C56.1202 17.8986 56.1306 17.8586 56.1306 17.8202V17.8202ZM64.178 13.0382V11.1596C64.178 11.0136 64.1188 10.9757 63.9738 10.9757C63.6833 10.9757 62.3468 11.0136 60.7977 11.0136C59.5962 11.0136 58.7933 10.9944 58.2508 10.9944H57.5347C57.4094 10.9944 57.3695 11.0225 57.3695 11.1596V12.9114C57.4094 12.941 57.439 12.9494 57.4849 12.9494C57.5253 12.9494 57.5633 12.9494 57.6023 12.9302C57.9801 12.0873 58.1734 11.6434 58.8224 11.314C59.1124 11.2844 60.1289 11.2755 60.2847 11.2755C60.2941 11.3816 60.304 11.7199 60.3138 12.1273C60.3237 12.8246 60.3237 13.2009 60.3237 14.8492C60.3237 16.2715 60.3138 17.0069 60.2941 17.1613C60.2561 17.4335 60.304 17.6367 59.1425 17.685C59.1124 17.7526 59.1124 17.7718 59.1124 17.8498C59.1124 17.8877 59.1124 17.9262 59.1228 17.9662H59.5001C59.8581 17.9662 60.3326 17.9262 60.6818 17.9262C60.9624 17.9262 61.495 17.9558 62.0859 17.9558H62.3566C62.3857 17.907 62.3857 17.8586 62.3857 17.8118C62.3857 17.7526 62.3759 17.723 62.3468 17.6747C62.2402 17.6747 61.6213 17.6954 61.3495 17.4907C61.3199 17.3852 61.2613 17.1041 61.2613 16.7657C61.2534 15.7197 61.243 15.2255 61.243 14.5281C61.243 13.628 61.2534 12.941 61.2534 11.2652C61.3885 11.2652 62.1051 11.2563 62.3966 11.2652C62.9953 11.4299 63.2276 11.6523 63.489 12.0005C63.7218 12.3112 63.78 12.5923 63.924 13.0569C63.9837 13.0762 64.0118 13.0762 64.0705 13.0762C64.108 13.0762 64.1578 13.0569 64.178 13.0382ZM72 11.0432C72 10.984 71.9615 10.9653 71.9423 10.9268C71.5453 10.9268 71.023 10.9564 70.8188 10.9564C70.3246 10.9564 69.7254 10.9165 69.4635 10.9165C69.4339 10.9757 69.4241 10.984 69.4241 11.0329C69.4241 11.0812 69.4339 11.1197 69.4438 11.1488C69.7254 11.206 70.1313 11.2755 70.2092 11.4111C70.2768 11.5359 70.2965 11.6331 70.2965 11.7875C70.2965 11.9034 70.2876 12.0197 70.2378 12.1465C70.151 12.3877 69.9671 12.7655 69.7057 13.2981C69.2598 14.1982 68.9792 14.7604 68.8239 14.9823C68.5728 14.5577 68.0111 13.4352 67.8764 13.1437L67.3329 11.9625C67.3142 11.9246 67.2945 11.7875 67.2945 11.7007C67.2945 11.5759 67.3142 11.4871 67.3329 11.4491C67.4207 11.2755 67.7211 11.2563 68.1275 11.206C68.1462 11.1596 68.1561 11.1004 68.1561 11.0625C68.1561 10.9944 68.1275 11.0136 68.0984 10.9653H67.9243C67.2752 10.9653 67.4686 10.9944 66.3549 10.9944C65.8815 10.9944 65.3094 10.9653 65.2324 10.9653C65.1935 11.0329 65.1737 11.0432 65.1737 11.1108C65.1737 11.1488 65.1836 11.1784 65.2137 11.2272C65.8613 11.3816 66.0546 11.4975 66.1231 11.6242L67.8177 14.9444C67.982 15.2551 68.0786 15.4958 68.1275 15.6713C68.195 15.9416 68.2059 16.3391 68.2059 16.8318C68.2059 17.2495 68.0599 17.4715 67.8947 17.5795C67.8276 17.6175 67.3423 17.685 67.1204 17.7043C67.0814 17.7718 67.0706 17.7911 67.0706 17.8394C67.0706 17.8877 67.0913 17.9173 67.1011 17.9558C67.5948 17.9558 68.1082 17.9454 68.3987 17.9454C68.6019 17.9454 68.9116 17.9558 69.4828 17.9662C69.8117 17.9745 70.0637 17.9854 70.2378 17.9854C70.2576 17.9454 70.2876 17.907 70.2876 17.8586C70.2876 17.8118 70.2768 17.7822 70.2477 17.7339C69.9375 17.6954 69.5035 17.6367 69.4058 17.5395C69.25 17.3743 69.174 17.2984 69.1533 16.9201L69.0764 15.4667C69.0665 15.3606 69.1055 15.2635 69.1153 15.2358C69.1434 15.1283 69.1819 15.0415 69.2199 14.9636L70.7123 12.0109C70.8469 11.7593 71.1384 11.4787 71.3322 11.3623C71.4688 11.2755 71.7682 11.2168 71.9615 11.168C71.9822 11.1197 72 11.0812 72 11.0432" fill="white"/>
</svg>
