<svg width="672" height="219" viewBox="0 0 672 219" fill="none" xmlns="http://www.w3.org/2000/svg">
<path fill="#FFF" d="m312.60000172 163.20000572c-14.9 0-25.6-3.5-35-13.1l10-9.9c7.2 7.2 15.1 9.5 25.3 9.5 12.9 0 20.4-5.6 20.4-15.2 0-4.3-1.3-7.9-3.9-10.3-2.5-2.4-5-3.3-10.8-4.2l-11.7-1.7c-8.1-1.1-14.5-3.9-18.8-7.9-4.9-4.6-7.2-10.8-7.2-18.9 0-17.2 12.5-29 33.1-29 13.1 0 22.2 3.3 30.7 11.3l-9.6 9.4c-6.1-5.8-13.2-7.6-21.5-7.6-11.7 0-18.1 6.7-18.1 15.4 0 3.6 1.1 6.8 3.8 9.2 2.5 2.2 6.5 3.9 11.1 4.6l11.3 1.7c9.2 1.4 14.3 3.6 18.5 7.4 5.4 4.7 8.1 11.8 8.1 20.3-.1 18.2-15 29-35.7 29z"></path>
<path fill="#FFF" d="m415.90000172 163.20000572c-14.9 0-25.6-3.5-35-13.1l10-9.9c7.2 7.2 15.1 9.5 25.3 9.5 12.9 0 20.4-5.6 20.4-15.2 0-4.3-1.3-7.9-3.9-10.3-2.5-2.4-5-3.3-10.8-4.2l-11.7-1.5c-8.1-1.1-14.5-3.9-18.8-7.9-4.9-4.6-7.2-10.8-7.2-18.9 0-17.2 12.5-29 33.1-29 13.1 0 22.2 3.3 30.7 11.3l-9.6 9.4c-6.1-5.8-13.2-7.6-21.5-7.6-11.7 0-18.1 6.7-18.1 15.4 0 3.6 1.1 6.8 3.8 9.2 2.5 2.2 6.5 3.9 11.1 4.6l11.3 1.7c9.2 1.4 14.3 3.6 18.5 7.4 5.4 4.7 8.1 11.8 8.1 20.3-.2 18-15 28.8-35.7 28.8z"></path>
<path fill="#FFF" d="m547.00000172 162.40000572-20.8-41.7h-18.8v41.7h-15v-98.9h38.4c18.8 0 30.7 12.1 30.7 28.9 0 14.2-8.6 23.2-19.7 26.3l22.8 43.8h-17.6zm-17.3-85.5h-22.2v31h22.2c10 0 16.8-5.7 16.8-15.4 0-9.8-6.8-15.6-16.8-15.6z"></path>
<path fill="#FFF" d="m636.20000172 163.20000572c-10.3 0-19.2-3.8-26-10.6-9.7-9.7-9.6-20.7-9.6-39.7s-.1-30 9.6-39.7c6.8-6.8 15.7-10.6 26-10.6 18.2 0 31.8 10.7 35.3 30.4h-15.3c-2.4-10-9-16.9-20-16.9-5.8 0-11.1 2.2-14.6 6-4.9 5.3-6 11-6 30.9s1.1 25.6 6 30.8c3.5 3.8 8.8 6 14.6 6 11 0 17.8-7 20.1-17h15.1c-3.2 19.7-17.2 30.4-35.2 30.4z"></path>
<path fill="#FFF" d="m88.00000172 219.00000572c-19.9 0-40.1-5.1-58.6-15.7l8.3-14.4c15.9 9.2 33.2 13.5 50.3 13.5 34.8 0 68.7-18.1 87.3-50.4 9.2-15.9 13.5-33.2 13.5-50.3 0-34.8-18.1-68.7-50.4-87.3l8.3-14.4c37.6 21.7 58.7 61.2 58.7 101.7 0 19.9-5.1 40.1-15.7 58.6-21.7 37.6-61.2 58.7-101.7 58.7z"></path>
<path fill="#FFF" d="m30.40000172 117.50000572 33.5 19.3 19.7-34-41.5-24c-6.8 12.5-10.4 25.9-11.7 38.7z"></path>
<path fill="#FFF" d="m42.80000172 173.20000572 17.9-31-30.9-17.8c-.1 1.5-.1 3-.1 4.4 0 11.7 1.9 22.3 4.9 30.5 2.3 6.3 5.3 11.1 8.2 13.9z"></path>
<path fill="#FFF" d="m97.30000172 163.30000572-31.2-18-17.9 31c2.1.6 4.7 1 7.7 1 11 0 26.5-4.6 41.4-14z"></path>
<path fill="#FFF" d="m45.10000172 73.40000572 41.5 24 19.7-34-33.5-19.3c-10.4 7.4-20.2 17.2-27.7 29.3z"></path>
<path fill="#FFF" d="m78.50000172 40.20000572 30.8 17.8 17.9-31.1c-2-.5-4.4-.8-7.2-.8-10.8-.1-26.4 4.6-41.5 14.1z"></path>
<path fill="#FFF" d="m151.60000172 89.50000572c-1.6 12.7-5.5 25.9-12.2 38.3l26.3 15.2c6.7-12.5 10.1-26 10.4-39.4z"></path>
<path fill="#FFF" d="m24.50000172 114.10000572c1.6-12.7 5.4-25.9 12.1-38.4l-26.4-15.2c-6.7 12.6-10 26.1-10.2 39.5z"></path>
<path fill="#FFF" d="m114.80000172 61.10000572 31.5 18.2c.1-1.6.1-3.2.1-4.7 0-11.7-1.9-22.3-4.9-30.5-2.4-6.6-5.6-11.5-8.6-14.2z"></path>
<path fill="#FFF" d="m130.90000172 130.10000572-42-24.2-19.7 34 33.9 19.6c10.4-7.5 20.2-17.2 27.8-29.4z"></path>
<path fill="#FFF" d="m103.50000172 166.90000572c-16.7 11.1-34.4 16.6-47.5 16.6-.2 0-.3 0-.5 0 23.7 9.5 49.8 7.9 71.7-2.9z"></path>
<path fill="#FFF" d="m28.80000172 161.50000572c-3.3-9-5.3-20.3-5.3-32.7 0-2.6.1-5.2.3-7.9l-23.6-13.7c1.6 24.1 13 47.2 32.7 63-1.6-2.5-2.9-5.5-4.1-8.7z"></path>
<path fill="#FFF" d="m136.20000172 133.20000572c-7.5 12.1-17 22-27.2 29.7l24.5 14.2c11.5-6.9 21.5-16.5 29.1-28.6z"></path>
<path fill="#FFF" d="m145.80000172 86.10000572-34.1-19.6-19.7 34 42 24.3c6.7-12.6 10.4-25.9 11.8-38.7z"></path>
<path fill="#FFF" d="m147.30000172 41.90000572c3.3 9 5.3 20.3 5.3 32.6 0 2.7-.1 5.4-.3 8.2l23.7 13.7c-1.5-24.3-12.9-47.5-32.7-63.4 1.5 2.7 2.9 5.6 4 8.9z"></path>
<path fill="#FFF" d="m72.40000172 36.60000572c16.7-11.2 34.5-16.7 47.7-16.8h.5c-23.8-9.5-50-7.9-72 3.1z"></path>
<path fill="#FFF" d="m39.70000172 70.30000572c7.5-12.1 17-22 27.1-29.7l-24.6-14.2c-11.4 6.9-21.4 16.6-28.9 28.7z"></path>
</svg>