<svg preserveAspectRatio="none" width="107" height="11" viewBox="0 0 107 11" fill="none" xmlns="http://www.w3.org/2000/svg">
<path d="M107 10.3533C107 10.4441 106.924 10.5349 106.847 10.5349C106.006 10.5349 105.166 10.5349 104.325 10.5349C103.866 10.5349 103.484 10.4441 103.637 10.0808L103.714 10.0808C103.484 10.1717 103.179 9.99003 103.102 10.2625C103.255 10.2625 103.561 10.2625 103.408 10.3533C103.255 10.5349 102.949 10.7166 102.567 10.4441L102.567 10.3533C102.491 10.2625 102.491 10.1717 102.338 10.2625C102.261 10.2625 102.414 10.3533 102.414 10.4441C102.491 10.6258 102.338 10.6258 102.109 10.6258C101.65 10.5349 102.032 10.3533 102.032 10.1717C101.803 10.3533 101.421 9.89921 101.191 10.2625L101.115 10.2625C101.115 10.2625 101.115 10.3533 101.191 10.3533C101.115 10.4441 101.115 10.4441 101.039 10.5349C101.039 10.5349 100.962 10.5349 100.962 10.6258C99.8921 10.8074 98.975 10.4441 98.0579 10.1717C97.7521 10.0808 97.7521 10.1717 97.5993 10.2625C97.1407 10.6258 96.6821 10.989 95.9179 10.4441C95.6886 10.3533 95.3829 10.3533 95.1536 10.5349C94.8479 10.3533 94.5421 10.2625 94.2364 10.0808C94.16 10.0808 94.16 9.99002 94.0836 9.99002L94.0071 10.0808C93.8543 10.0808 93.7014 9.99002 93.4721 9.99002C93.5486 9.26348 92.6314 9.62675 92.4021 9.71757C91.8671 9.89921 91.8671 9.71757 91.7143 9.53593C91.1029 9.80839 91.8671 9.89921 91.9436 9.99002C90.5679 10.1717 89.1921 10.3533 87.74 10.5349C87.0521 10.6258 86.3643 10.4441 85.8293 10.2625C85.6764 9.99002 85.1414 10.2625 84.9121 10.0808C84.8357 10.0808 84.7593 10.0808 84.6829 10.0808C84.53 10.2625 84.53 10.8074 83.995 10.1717C83.7657 9.8992 83.46 10.0808 83.2307 10.1717C82.0079 10.8074 81.0907 10.1717 80.1736 9.8992C80.1736 10.0808 79.9443 10.1717 79.7914 10.0808C79.18 9.62675 78.4921 9.99002 77.8807 9.99002C77.8043 9.99002 77.7279 9.8992 77.7279 9.8992C77.575 9.8992 77.4986 9.8992 77.3457 9.8992C77.1929 9.8992 76.9636 9.8992 76.8107 9.8992C76.7343 9.99002 76.8871 10.0808 76.9636 10.0808C76.7343 10.1717 76.4286 10.4441 76.1993 10.0808C76.1229 10.1717 75.97 10.1717 75.8936 10.2625C74.9764 10.2625 74.2121 9.80838 73.295 9.8992C73.2186 9.8992 73.1421 9.8992 73.0657 9.8992C72.9129 9.8992 72.6836 9.44511 72.5307 9.99002C72.4543 10.4441 71.8429 10.4441 71.3079 10.2625C70.7729 10.2625 69.8557 10.7166 69.7029 9.99002C69.3207 9.99002 68.9386 10.0808 68.5564 10.0808C68.4036 9.99002 68.1743 9.8992 68.0214 9.80838C67.7921 9.99002 67.6393 10.1717 67.41 10.3533C66.4929 10.3533 65.805 10.0808 65.1171 9.80838C64.8879 9.71756 64.735 9.62675 64.5057 9.62675C64.4293 9.62675 64.3529 9.62675 64.2764 9.62675C63.7414 9.8992 63.13 9.35429 62.595 9.71756C62.595 9.80838 62.5186 9.8992 62.7479 9.8992C62.1364 10.3533 61.525 10.4441 61.1429 9.71756C61.0664 9.80838 60.9136 9.8992 60.9136 9.8992C59.6907 9.35429 58.9264 10.3533 57.8564 10.2625C57.5507 10.2625 57.245 10.3533 57.245 10.0808C55.3343 10.5349 53.4236 10.3533 51.5893 10.0808C51.2071 9.99002 51.5129 9.80838 51.36 9.62674L51.2836 9.62674C51.2071 9.62674 51.2071 9.62674 51.1307 9.62674C51.0543 9.62674 51.0543 9.62674 50.9779 9.62674C50.9014 9.62674 50.825 9.62674 50.7486 9.62674C50.29 9.53593 50.5193 9.71756 50.5957 9.80838C49.2964 10.2625 47.9971 9.80838 46.6214 9.8992C46.545 9.8992 46.4686 9.8992 46.3921 9.8992C46.0864 10.0808 45.7807 10.1717 45.5514 9.8992C45.5514 9.80838 45.475 9.71756 45.475 9.62674C45.5514 9.62674 45.6279 9.62674 45.7043 9.62674C45.6279 9.62674 45.5514 9.62674 45.475 9.62674C44.94 9.62674 45.2457 9.80838 45.3986 9.8992C44.6343 9.71756 43.87 9.99001 43.1057 9.8992C42.9529 9.8992 42.7236 9.80838 42.6471 9.99001C42.1886 10.0808 41.73 9.99001 41.3479 9.8992C39.7429 10.0808 38.1379 10.1717 36.5329 9.99001C33.705 9.99001 30.9536 10.0808 28.0493 9.89919C26.1386 9.80838 24.1514 9.99001 22.1643 9.99001C19.8714 9.99001 17.5021 9.80837 15.2857 9.89919C13.1457 9.99001 10.9293 9.99001 8.78928 10.0808C6.49643 10.0808 4.12714 9.99001 1.83428 9.99001C1.29928 9.99001 1.37571 9.71755 1.29928 9.53592C0.840713 8.17364 0.917142 6.62973 0.764285 5.08582C0.687856 4.63173 0.611428 4.17764 -6.82804e-07 3.90518C0.840714 3.81437 1.605 3.63273 0.840714 2.997C0.687857 2.81537 0.611428 2.72455 0.917142 2.63373C1.37571 2.72455 1.52857 2.54291 1.29929 2.36127C0.764285 2.08882 1.29929 1.81637 1.29929 1.63473C1.37571 0.454091 2.52214 0.272455 4.12714 0.363274C8.40714 0.635729 12.6107 2.20493e-06 16.8907 2.95327e-06C22.1643 0.0908221 27.4379 0.090823 32.7114 0.090824C36.6093 0.0908247 40.5071 0.0908253 44.405 0.272463C48.2264 0.4541 51.9714 0.4541 55.7929 0.272465C60.99 0.0908289 66.1871 0.272466 71.3843 0.272467C73.5243 0.272468 75.7407 0.363286 77.8807 0.363287C81.32 0.363287 84.7593 0.544924 88.1986 0.363288C90.1857 0.272471 92.3257 0.272471 94.3129 0.272471C96.9114 0.181653 99.5864 0.635745 102.185 0.181654C102.72 0.0908362 103.331 0.272473 103.561 0.635746C104.249 1.63475 104.631 2.72457 104.401 3.72357C104.172 4.63175 104.707 5.3583 104.631 6.17566C104.631 6.81139 105.777 6.81139 106.083 7.26548C106.847 8.17366 106.694 9.26348 107 10.3533ZM41.5771 9.8992C41.5007 9.8992 41.5007 9.8992 41.4243 9.8992C41.5007 9.99001 41.5007 9.99001 41.5771 9.8992ZM68.0214 9.8992C67.7921 9.8992 67.5629 9.8992 67.3336 9.8992C67.3336 9.8992 67.3336 9.99002 67.2571 9.99002C67.4864 9.99002 67.7157 9.8992 68.0214 9.8992ZM71.8429 10.0808C71.69 10.0808 71.4607 9.99002 71.3079 9.99002C71.2314 10.0808 71.155 10.2625 71.3843 10.3533C71.6136 10.3533 71.8429 10.2625 71.8429 10.0808ZM76.6579 9.8992C76.5814 9.80838 76.505 9.71757 76.505 9.62675C76.505 9.62675 76.4286 9.62675 76.3521 9.62675C76.4286 9.80838 76.5814 9.8992 76.6579 9.8992ZM86.135 9.99002C86.135 9.99002 86.0586 9.99002 86.0586 9.8992C85.9821 9.8992 85.9821 9.99002 85.9057 9.99002C85.9821 9.99002 86.0586 9.99002 86.135 9.99002ZM91.6379 9.53593C91.5614 9.53593 91.5614 9.53593 91.485 9.53593C91.485 9.53593 91.5614 9.53593 91.6379 9.53593ZM97.1407 10.2625C97.2171 10.2625 97.2171 10.2625 97.2936 10.2625C97.2936 10.2625 97.2936 10.2625 97.1407 10.2625C97.2171 10.2625 97.2171 10.1717 97.1407 10.2625Z" fill="#EA4A2E"/>
</svg>
