<svg width="54" height="16" viewBox="0 0 54 16" fill="none" xmlns="http://www.w3.org/2000/svg">
<path d="M4.90274 15H3.14887L0.0795898 0.80957H1.97298L4.02581 12.2297L6.09857 0.80957H7.97202L4.90274 15Z" fill="white"/>
<path d="M9.78694 15V4.85544H11.4013V15H9.78694ZM9.64742 2.84247V0.969013H11.5408V2.84247H9.64742Z" fill="white"/>
<path d="M13.4205 15V13.7643L16.6691 6.11105H13.6397V4.67607H18.4629V5.91175L15.2142 13.5451H18.4629V15H13.4205Z" fill="white"/>
<path d="M20.611 15V0.80957H26.0919V2.34421H22.325V7.10757H25.5737V8.64221H22.325V13.4654H26.0919V15H20.611Z" fill="white"/>
<path d="M32.6969 15V0.80957H34.4109V13.4654H38.1778V15H32.6969Z" fill="white"/>
<path d="M43.9043 15V14.0832C43.8246 14.2294 43.7316 14.3622 43.6253 14.4818C43.519 14.6014 43.4127 14.7011 43.3064 14.7808C43.147 14.9004 42.9743 14.9934 42.7882 15.0598C42.6022 15.1262 42.3697 15.1595 42.0907 15.1595C41.7054 15.1595 41.3732 15.0997 41.0942 14.9801C40.8151 14.8472 40.556 14.6479 40.3169 14.3822C40.1176 14.1563 39.9581 13.8507 39.8385 13.4654C39.719 13.08 39.6592 12.615 39.6592 12.0702C39.6592 11.5919 39.7322 11.1534 39.8784 10.7548C40.0378 10.3429 40.2704 10.0041 40.576 9.73839C40.8417 9.51251 41.134 9.33978 41.4529 9.22019C41.7851 9.10061 42.2235 9.04082 42.7683 9.04082H43.8246V7.40653C43.8246 6.4233 43.4194 5.93168 42.6089 5.93168C42.4228 5.93168 42.27 5.9649 42.1505 6.03133C42.0309 6.08448 41.9179 6.1642 41.8116 6.2705C41.6655 6.41665 41.5658 6.58274 41.5127 6.76876C41.4595 6.95477 41.433 7.1873 41.433 7.46632H39.8186C39.8186 7.06771 39.8718 6.68239 39.9781 6.31036C40.0976 5.92504 40.3102 5.57958 40.6158 5.27398C40.8417 5.0481 41.1274 4.86873 41.4728 4.73586C41.8316 4.5897 42.2103 4.51662 42.6089 4.51662C43.4725 4.51662 44.1435 4.75579 44.6218 5.23412C44.8743 5.49986 45.0736 5.8121 45.2197 6.17085C45.3659 6.52959 45.439 6.9747 45.439 7.50618V15H43.9043ZM43.8246 10.2167H42.9078C42.6554 10.2167 42.4361 10.2433 42.2501 10.2964C42.0774 10.3496 41.9113 10.4492 41.7519 10.5954C41.6057 10.7415 41.4861 10.9475 41.3931 11.2132C41.3134 11.4657 41.2735 11.7314 41.2735 12.0105C41.2735 12.5552 41.3732 12.9804 41.5725 13.286C41.7851 13.5916 42.104 13.7444 42.5291 13.7444C42.9145 13.7444 43.2267 13.5982 43.4659 13.3059C43.705 13.0003 43.8246 12.6084 43.8246 12.13V10.2167Z" fill="white"/>
<path d="M53.7898 9.83804C53.7898 11.0339 53.75 11.9972 53.6702 12.7279C53.5905 13.4587 53.3846 14.0168 53.0524 14.4021C52.8265 14.6678 52.5674 14.8605 52.2751 14.9801C51.9961 15.0997 51.6838 15.1595 51.3384 15.1595C50.9398 15.1595 50.5677 15.0532 50.2223 14.8406C50.116 14.7741 49.9964 14.6811 49.8635 14.5615C49.7307 14.4287 49.6377 14.3091 49.5845 14.2028V15H48.0299V0.80957H49.6443V5.39356C49.7107 5.28726 49.7971 5.18097 49.9034 5.07467C50.0097 4.96838 50.116 4.88201 50.2223 4.81558C50.5412 4.61627 50.9132 4.51662 51.3384 4.51662C51.7237 4.51662 52.0492 4.58306 52.315 4.71593C52.594 4.83551 52.8398 5.02153 53.0524 5.27398C53.3846 5.6593 53.5905 6.21735 53.6702 6.94813C53.75 7.67891 53.7898 8.64221 53.7898 9.83804ZM52.1755 9.83804C52.1755 8.90795 52.1555 8.17053 52.1157 7.62576C52.0758 7.06771 51.9629 6.65582 51.7768 6.39008C51.5643 6.09777 51.2653 5.95161 50.88 5.95161C50.5345 5.95161 50.2555 6.05791 50.0429 6.2705C49.7772 6.53624 49.6443 6.93484 49.6443 7.46632V12.1898C49.6443 12.7346 49.7772 13.1398 50.0429 13.4056C50.1492 13.5119 50.2754 13.5916 50.4216 13.6447C50.5677 13.6846 50.7205 13.7045 50.88 13.7045C51.2653 13.7045 51.5643 13.5584 51.7768 13.2661C51.9629 13.0003 52.0758 12.5951 52.1157 12.0503C52.1555 11.5055 52.1755 10.7681 52.1755 9.83804Z" fill="white"/>
</svg>
